HIERARCHY
ROOT Hips
{
    OFFSET 0.000000 0.000000 0.000000
    CHANNELS 6 Xposition Yposition Zposition Zrotation Xrotation Yrotation
    JOINT Spine
    {
        OFFSET -0.000000 8.349382 0.000000
        CHANNELS 3 Zrotation Xrotation Yrotation
        JOINT Spine1
        {
            OFFSET -0.000000 23.269058 0.000000
            CHANNELS 3 Zrotation Xrotation Yrotation
            JOINT Neck
            {
                OFFSET -0.000000 23.173496 2.106681
                CHANNELS 3 Zrotation Xrotation Yrotation
                JOINT Head
                {
                    OFFSET -0.000000 14.255042 -2.036435
                    CHANNELS 3 Zrotation Xrotation Yrotation
                    End Site
                    {
                        OFFSET -0.000000 25.455433 0.000000
                    }
                }
            }
            JOINT LeftShoulder
            {
                OFFSET 3.917082 21.531742 0.000256
                CHANNELS 3 Zrotation Xrotation Yrotation
                JOINT LeftArm
                {
                    OFFSET 10.728225 0.000000 0.000000
                    CHANNELS 3 Zrotation Xrotation Yrotation
                    JOINT LeftForeArm
                    {
                        OFFSET 30.046112 0.000000 0.000000
                        CHANNELS 3 Zrotation Xrotation Yrotation
                        JOINT LeftHand
                        {
                            OFFSET 29.023712 0.000000 0.000000
                            CHANNELS 3 Zrotation Xrotation Yrotation
                            End Site
                            {
                                OFFSET 15.273261 0.000000 0.000000
                            }
                        }
                    }
                }
            }
            JOINT RightShoulder
            {
                OFFSET -3.920664 21.531742 0.000256
                CHANNELS 3 Zrotation Xrotation Yrotation
                JOINT RightArm
                {
                    OFFSET -10.728225 0.000000 0.000000
                    CHANNELS 3 Zrotation Xrotation Yrotation
                    JOINT RightForeArm
                    {
                        OFFSET -30.046112 0.000000 0.000000
                        CHANNELS 3 Zrotation Xrotation Yrotation
                        JOINT RightHand
                        {
                            OFFSET -29.023712 0.000000 0.000000
                            CHANNELS 3 Zrotation Xrotation Yrotation
                            End Site
                            {
                                OFFSET -15.273261 0.000000 0.000000
                            }
                        }
                    }
                }
            }
        }
    }
    JOINT LeftUpLeg
    {
        OFFSET 10.182174 0.000000 0.000000
        CHANNELS 3 Zrotation Xrotation Yrotation
        JOINT LeftLeg
        {
            OFFSET -0.000000 -49.689274 0.000000
            CHANNELS 3 Zrotation Xrotation Yrotation
            JOINT LeftFoot
            {
                OFFSET -0.000000 -39.155319 0.000000
                CHANNELS 3 Zrotation Xrotation Yrotation
                JOINT LeftToeBase
                {
                    OFFSET -0.000000 -6.618412 15.273261
                    CHANNELS 3 Zrotation Xrotation Yrotation
                    End Site
                    {
                        OFFSET -0.000000 0.000000 4.072869
                    }
                }
            }
        }
    }
    JOINT RightUpLeg
    {
        OFFSET -10.182174 0.000000 0.000000
        CHANNELS 3 Zrotation Xrotation Yrotation
        JOINT RightLeg
        {
            OFFSET -0.000000 -49.689274 0.000000
            CHANNELS 3 Zrotation Xrotation Yrotation
            JOINT RightFoot
            {
                OFFSET -0.000000 -39.155319 0.000000
                CHANNELS 3 Zrotation Xrotation Yrotation
                JOINT RightToeBase
                {
                    OFFSET -0.000000 -6.618412 15.273261
                    CHANNELS 3 Zrotation Xrotation Yrotation
                    End Site
                    {
                        OFFSET -0.000000 0.000000 4.072869
                    }
                }
            }
        }
    }
}
MOTION
Frames:    9
Frame Time:    0.008333
30.866035    97.591934    12.379761    0.277607    0.567231    97.595047    0.062315    -0.828820    0.625566    0.214161    1.006248    0.623325    1.776276    10.095702    1.944813    -1.134225    -1.914227    1.741474    14.901055    -1.090773    -19.689919    -10.791718    -5.604014    8.611753    6.210170    -3.016845    -4.823533    -1.257070    -2.779934    2.240815    -14.075258    4.263901    -20.815218    17.462767    -1.557011    3.657804    -5.150325    -2.692368    3.729358    -2.135348    -2.575675    2.733844    3.879011    5.321564    -5.050412    -4.635127    -1.134206    -4.540643    0.390026    -4.241298    25.753761    0.000000    0.000000    0.000000    -3.823337    2.799487    -0.115035    4.726881    4.499770    0.213631    -0.481220    -6.354252    -13.262287    0.000000    0.000000    0.000000    
30.869154    97.589157    12.381262    0.279968    0.564380    97.595245    0.065066    -0.830744    0.622999    0.230970    1.005443    0.620606    1.756390    10.089952    1.939108    -1.120767    -1.881679    1.739015    14.870915    -1.073069    -19.673574    -10.782789    -5.608809    8.579790    6.198930    -3.093610    -4.870752    -0.979291    -2.849502    2.278620    -14.091494    4.268526    -20.808563    17.464096    -1.545034    3.662181    -5.154272    -2.683460    3.759261    -2.269171    -2.567262    2.671766    3.884174    5.320372    -5.038203    -4.640260    -1.124016    -4.542209    0.399629    -4.249356    25.743191    0.000000    0.000000    0.000000    -3.814996    2.796425    -0.123804    4.722180    4.516191    0.216233    -0.487816    -6.363936    -13.267378    0.000000    0.000000    0.000000    
30.871157    97.588577    12.381263    0.279320    0.569080    97.594643    0.062182    -0.842036    0.619675    0.247710    1.024861    0.617058    1.720169    10.083127    1.933406    -1.092396    -1.870968    1.739665    14.848907    -1.100087    -19.641085    -10.802815    -5.577371    8.542353    6.274362    -3.044970    -4.886729    -1.147019    -2.799098    2.179032    -14.132159    4.261100    -20.806143    17.483068    -1.531317    3.669963    -5.138493    -2.680086    3.794255    -2.335207    -2.563169    2.614217    3.883551    5.322233    -5.053157    -4.645056    -1.123197    -4.511824    0.406136    -4.248615    25.721762    0.000000    0.000000    0.000000    -3.819556    2.792303    -0.127044    4.721822    4.523623    0.217273    -0.480002    -6.372943    -13.264297    0.000000    0.000000    0.000000    
30.874035    97.586998    12.381244    0.281804    0.568606    97.588562    0.082289    -0.841209    0.612351    0.233647    1.010889    0.609748    1.693662    10.130460    1.936919    -1.060763    -1.895570    1.750358    14.814816    -1.075328    -19.621794    -10.861757    -5.471714    8.505652    6.379045    -3.191912    -4.910150    -0.935805    -2.936469    2.199352    -14.128187    4.261446    -20.781706    17.476765    -1.519594    3.683619    -5.145329    -2.657642    3.804961    -2.329136    -2.539909    2.615121    3.882907    5.329458    -5.042737    -4.640793    -1.132690    -4.520587    0.398466    -4.248909    25.725786    0.000000    0.000000    0.000000    -3.819297    2.792691    -0.113852    4.724142    4.531072    0.236472    -0.507636    -6.380744    -13.292108    0.000000    0.000000    0.000000    
30.873930    97.585297    12.382309    0.277600    0.569666    97.586517    0.088679    -0.847888    0.610561    0.233831    1.012463    0.607928    1.677661    10.129848    1.931533    -1.043318    -1.869225    1.748697    14.794131    -1.067342    -19.606182    -10.871364    -5.478607    8.476807    6.400516    -3.221103    -4.958683    -0.824501    -2.959234    2.106351    -14.125094    4.256041    -20.782347    17.490969    -1.427072    3.701781    -5.206677    -2.677852    3.801034    -2.171016    -2.556436    2.709005    3.885930    5.328362    -5.053271    -4.641996    -1.137146    -4.527790    0.408743    -4.246402    25.736347    0.000000    0.000000    0.000000    -3.815987    2.785700    -0.097145    4.715957    4.529376    0.201467    -0.522059    -6.380842    -13.274475    0.000000    0.000000    0.000000    
30.877792    97.583710    12.382713    0.280668    0.573287    97.579674    0.094996    -0.848401    0.607230    0.229011    1.011532    0.604453    1.665700    10.126172    1.928320    -1.023633    -1.839160    1.749356    14.771081    -1.054382    -19.593542    -10.837429    -5.544730    8.474743    6.347896    -3.164223    -5.061178    -0.777991    -2.898894    2.227912    -14.112035    4.268407    -20.777750    17.488815    -1.439690    3.734290    -5.168161    -2.724941    3.835508    -2.309559    -2.605603    2.663871    3.886709    5.337903    -5.048718    -4.650004    -1.142735    -4.510551    0.400785    -4.252807    25.722416    0.000000    0.000000    0.000000    -3.821692    2.791312    -0.056996    4.734112    4.575426    0.177973    -0.538597    -6.445942    -13.291943    0.000000    0.000000    0.000000    
30.877760    97.582809    12.383470    0.271386    0.573437    97.568779    0.099513    -0.858421    0.612972    0.227380    0.999998    0.610256    1.670776    10.190293    1.921432    -1.022286    -1.898247    1.742590    14.742355    -1.020290    -19.614906    -10.859013    -5.521565    8.472163    6.393022    -3.225650    -5.111886    -0.811303    -2.956715    2.311092    -14.105555    4.263001    -20.762716    17.546154    -1.384117    3.708302    -5.319420    -2.675377    3.884758    -1.931422    -2.541092    2.733514    3.885357    5.333309    -5.035313    -4.650754    -1.147528    -4.510951    0.393886    -4.256167    25.719357    0.000000    0.000000    0.000000    -3.823084    2.774610    -0.027792    4.743111    4.585610    0.206199    -0.560949    -6.454858    -13.366796    0.000000    0.000000    0.000000    
30.879530    97.580956    12.385257    0.272629    0.573884    97.557648    0.095696    -0.870766    0.623019    0.233167    1.031838    0.620163    1.710256    10.166899    1.889731    -1.082619    -1.867222    1.697649    14.747237    -1.023789    -19.617533    -10.922791    -5.486231    8.453662    6.458764    -3.277668    -5.178508    -0.862764    -3.003212    2.326357    -14.092695    4.262431    -20.780123    17.568447    -1.357071    3.740450    -5.292393    -2.820234    3.893381    -2.050610    -2.689409    2.738262    3.888470    5.338409    -5.024569    -4.656884    -1.148688    -4.520495    0.403039    -4.263642    25.728035    0.000000    0.000000    0.000000    -3.817579    2.770425    -0.009608    4.729991    4.591007    0.219435    -0.559649    -6.470307    -13.374815    0.000000    0.000000    0.000000    
30.881123    97.579628    12.386468    0.274219    0.575026    97.555321    0.101120    -0.869099    0.614749    0.235771    1.034480    0.611835    1.578939    10.171370    1.878104    -0.874962    -1.872353    1.726047    14.710625    -1.015276    -19.595940    -10.956481    -5.432296    8.440953    6.521511    -3.302155    -5.258358    -0.954945    -3.022034    2.307541    -14.091845    4.265817    -20.777306    17.567860    -1.370049    3.807931    -5.198482    -2.881923    3.872524    -2.354761    -2.761736    2.700581    3.888044    5.342942    -5.018185    -4.654889    -1.154771    -4.542393    0.400874    -4.263020    25.741535    0.000000    0.000000    0.000000    -3.820175    2.770734    0.002395    4.736977    4.598774    0.243131    -0.551149    -6.486703    -13.417795    0.000000    0.000000    0.000000    
